<svg xmlns="http://www.w3.org/2000/svg" xmlns:xlink="http://www.w3.org/1999/xlink" width="48" zoomAndPan="magnify" viewBox="0 0 36 36.000001" height="48" preserveAspectRatio="xMidYMid meet" version="1.0"><defs><clipPath id="082bc4544d"><path d="M 0.488281 0 L 35.511719 0 L 35.511719 35.027344 L 0.488281 35.027344 Z M 0.488281 0 " clip-rule="nonzero"/></clipPath><clipPath id="367c3d6dbf"><path d="M 0.488281 0.390625 L 35.511719 0.390625 L 35.511719 35.027344 L 0.488281 35.027344 Z M 0.488281 0.390625 " clip-rule="nonzero"/></clipPath><linearGradient x1="562.279909" gradientTransform="matrix(0.151789, 0, 0, 0.151789, -58.347251, -27.722461)" y1="492.724167" x2="300.853664" gradientUnits="userSpaceOnUse" y2="307.899915" id="f7dbe7f5e2"><stop stop-opacity="1" stop-color="rgb(8.956909%, 30.993652%, 49.098206%)" offset="0"/><stop stop-opacity="1" stop-color="rgb(8.94165%, 31.098938%, 49.238586%)" offset="0.0625"/><stop stop-opacity="1" stop-color="rgb(8.911133%, 31.311035%, 49.5224%)" offset="0.125"/><stop stop-opacity="1" stop-color="rgb(8.882141%, 31.521606%, 49.806213%)" offset="0.1875"/><stop stop-opacity="1" stop-color="rgb(8.851624%, 31.732178%, 50.090027%)" offset="0.25"/><stop stop-opacity="1" stop-color="rgb(8.821106%, 31.944275%, 50.37384%)" offset="0.3125"/><stop stop-opacity="1" stop-color="rgb(8.790588%, 32.154846%, 50.657654%)" offset="0.375"/><stop stop-opacity="1" stop-color="rgb(8.761597%, 32.366943%, 50.941467%)" offset="0.411466"/><stop stop-opacity="1" stop-color="rgb(8.746338%, 32.472229%, 51.083374%)" offset="0.4375"/><stop stop-opacity="1" stop-color="rgb(8.731079%, 32.577515%, 51.225281%)" offset="0.5"/><stop stop-opacity="1" stop-color="rgb(8.700562%, 32.788086%, 51.509094%)" offset="0.5625"/><stop stop-opacity="1" stop-color="rgb(8.670044%, 33.000183%, 51.792908%)" offset="0.588534"/><stop stop-opacity="1" stop-color="rgb(8.654785%, 33.105469%, 51.934814%)" offset="0.625"/><stop stop-opacity="1" stop-color="rgb(8.639526%, 33.210754%, 52.076721%)" offset="0.6875"/><stop stop-opacity="1" stop-color="rgb(8.610535%, 33.422852%, 52.359009%)" offset="0.75"/><stop stop-opacity="1" stop-color="rgb(8.580017%, 33.633423%, 52.642822%)" offset="0.8125"/><stop stop-opacity="1" stop-color="rgb(8.5495%, 33.843994%, 52.926636%)" offset="0.875"/><stop stop-opacity="1" stop-color="rgb(8.518982%, 34.056091%, 53.210449%)" offset="0.9375"/><stop stop-opacity="1" stop-color="rgb(8.48999%, 34.266663%, 53.494263%)" offset="1"/></linearGradient></defs><g clip-path="url(#082bc4544d)"><path fill="#ffffff" d="M 0.488281 0 L 35.511719 0 L 35.511719 35.027344 L 0.488281 35.027344 Z M 0.488281 0 " fill-opacity="1" fill-rule="nonzero"/><path fill="#ffffff" d="M 0.488281 0 L 35.511719 0 L 35.511719 35.027344 L 0.488281 35.027344 Z M 0.488281 0 " fill-opacity="1" fill-rule="nonzero"/></g><g clip-path="url(#367c3d6dbf)"><path fill="url(#f7dbe7f5e2)" d="M 0.488281 0.390625 L 0.488281 35.027344 L 35.511719 35.027344 L 35.511719 0.390625 Z M 0.488281 0.390625 " fill-rule="nonzero"/></g><path fill="#fdfdfd" d="M 20.859375 9.121094 C 21.242188 9.277344 22.519531 10.296875 22.859375 10.601562 C 18.867188 16.097656 14.417969 21.449219 10.296875 26.90625 L 8.375 25.292969 C 10.027344 22.980469 12.453125 20.070312 14.246094 17.773438 C 15.394531 16.304688 16.527344 14.820312 17.644531 13.328125 C 13.929688 11.09375 9.566406 12.320312 6.574219 15.152344 C 6.089844 14.507812 5.582031 14.007812 5.019531 13.445312 C 8.15625 10.382812 12.238281 8.921875 16.558594 10.296875 C 17.4375 10.578125 18.222656 11.003906 19.039062 11.421875 Z M 20.859375 9.121094 " fill-opacity="1" fill-rule="nonzero"/><path fill="#fdfdfd" d="M 27.433594 9.136719 C 27.800781 9.222656 29.050781 10.226562 29.425781 10.515625 C 29.234375 10.816406 28.984375 11.109375 28.769531 11.394531 C 26.589844 14.304688 24.269531 17.101562 22.054688 19.984375 C 21.101562 21.226562 20.109375 22.429688 19.246094 23.738281 C 22.519531 25.027344 25.859375 24.496094 28.492188 22.132812 C 28.808594 21.851562 29.121094 21.566406 29.433594 21.277344 C 30.082031 21.804688 30.691406 22.382812 31.253906 23.003906 C 30.3125 24.039062 29.207031 24.8125 27.980469 25.46875 C 24.609375 27.152344 21.183594 27.296875 17.824219 25.464844 C 17.257812 26.1875 16.753906 26.78125 16.144531 27.472656 C 15.640625 26.964844 14.878906 26.417969 14.296875 25.914062 C 15.476562 24.292969 17.152344 22.289062 18.417969 20.679688 C 21.453125 16.855469 24.457031 13.007812 27.433594 9.136719 Z M 27.433594 9.136719 " fill-opacity="1" fill-rule="nonzero"/><path fill="#fdfdfd" d="M 30.78125 14.453125 C 30.882812 14.5625 31.3125 15.621094 31.585938 15.945312 C 32.042969 16.484375 32.816406 16.707031 33.472656 16.820312 C 32.964844 16.996094 31.757812 17.386719 31.515625 17.800781 C 31.289062 18.179688 31.078125 18.882812 30.769531 19.28125 C 30.183594 17.558594 29.738281 17.3125 28.039062 16.835938 C 29.632812 16.535156 30.257812 15.945312 30.78125 14.453125 Z M 30.78125 14.453125 " fill-opacity="1" fill-rule="nonzero"/><path fill="#fdfdfd" d="M 7.144531 17.554688 C 7.984375 19.011719 7.464844 18.988281 9.355469 19.484375 C 8.804688 19.6875 8.210938 19.878906 7.726562 20.207031 C 7.445312 20.726562 7.414062 20.851562 7.261719 21.402344 C 7.183594 21.324219 7.203125 21.355469 7.164062 21.261719 C 6.605469 19.941406 6.464844 19.90625 5.078125 19.527344 C 6.457031 19.152344 6.785156 18.910156 7.144531 17.554688 Z M 7.144531 17.554688 " fill-opacity="1" fill-rule="nonzero"/></svg>